<svg height="512" viewBox="0 0 52 60" width="512" xmlns="http://www.w3.org/2000/svg"><g id="Page-1" fill="none" fill-rule="evenodd"><g id="001---Mountains-Badge" fill-rule="nonzero"><path id="Shape" d="m49.977 14.135-23-12.88c-.6070073-.33982961-1.3469927-.33982961-1.954 0l-23 12.88c-.63168944.3536478-1.02295374 1.0210537-1.023 1.745v28.24c.00004626.7239463.39131056 1.3913522 1.023 1.745l23 12.88c.6070073.3398296 1.3469927.3398296 1.954 0l23-12.88c.6316894-.3536478 1.0229537-1.0210537 1.023-1.745v-28.24c-.0000463-.7239463-.3913106-1.3913522-1.023-1.745z" fill="#e8edfc"/><path id="Shape" d="m49.977 14.135-23-12.88c-.6070073-.33982961-1.3469927-.33982961-1.954 0l-.523.293 22.477 12.587c.6316894.3536478 1.0229537 1.0210537 1.023 1.745v28.24c-.0000463.7239463-.3913106 1.3913522-1.023 1.745l-22.477 12.587.523.293c.6070073.3398296 1.3469927.3398296 1.954 0l23-12.88c.6316894-.3536478 1.0229537-1.0210537 1.023-1.745v-28.24c-.0000463-.7239463-.3913106-1.3913522-1.023-1.745z" fill="#cad9fc"/><path id="Shape" d="m47 18.22v11.42l-9.55-11.46c-.0972794-.1143674-.2398562-.1802712-.39-.1802712s-.2927206.0659038-.39.1802712l-2.63 3.19-7.64-9.18c-.098793-.1189328-.2453873-.187735-.4-.187735s-.301207.0688022-.4.187735l-7.59 9.11-2.63-3.12c-.0974648-.1140555-.2399732-.1797298-.39-.1797298s-.2925352.0656743-.39.1797298l-9.60000011 11.51.00000011-11.47c-.00023735-.7219307.38995158-1.3875471 1.02-1.74l19-10.64c.6091169-.33992977 1.3508831-.33992977 1.96 0l19 10.64c.6300484.3524529 1.0202373 1.0180693 1.02 1.74z" fill="#cad9fc"/><path id="Shape" d="m45.98 16.48-19-10.64c-.6091169-.33992977-1.3508831-.33992977-1.96 0l-.52.291 18.48 10.349c.6300484.3524529 1.0202373 1.0180693 1.02 1.74v7.82l3.0000001 3.6-.0000001-11.42c.0002373-.7219307-.3899516-1.3875471-1.02-1.74z" fill="#a4c2f7"/><path id="Shape" d="m47.0000001 41-.0000001.78c.0002373.7219307-.3899516 1.3875471-1.02 1.74l-19 10.64c-.6091169.3399298-1.3508831.3399298-1.96 0l-19-10.64c-.63004842-.3524529-1.02023735-1.0180693-1.02-1.74l-.00000011-.78z" fill="#cad9fc"/><path id="Shape" d="m41.04 22.48-3.14 3.15c-.4961593.489773-1.2938407.489773-1.79 0l-3.06-3.06.99-1.2 2.63-3.19c.0972794-.1143674.2398562-.1802712.39-.1802712s.2927206.0659038.39.1802712z" fill="#fff"/><path id="Shape" d="m47 29.64v11.36h-29.18l8.31-10.06 6.92-8.37 3.06 3.06c.4961593.489773 1.2938407.489773 1.79 0l3.14-3.15z" fill="#e8edfc"/><path id="Shape" d="m19.02 22.5-3.12 3.13c-.4961593.489773-1.2938407.489773-1.79 0l-3.12-3.12 3.61-4.33c.0974648-.1140555.2399732-.1797298.39-.1797298s.2925352.0656743.39.1797298l2.63 3.12.06.07z" fill="#fff"/><path id="Shape" d="m26.13 30.94-8.31 10.06h-12.82v-11.31l5.99-7.18 3.12 3.12c.4961593.489773 1.2938407.489773 1.79 0l3.12-3.13z" fill="#e8edfc"/><path id="Shape" d="m29.95 16.46-3.24 3.25c-.3930079.3899779-1.0269921.3899779-1.42 0l-3.25-3.25 3.56-4.27c.098793-.1189328.2453873-.187735.4-.187735s.301207.0688022.4.187735z" fill="#fff"/><path id="Shape" d="m34.04 21.37-.99 1.2-6.92 8.37-7.11-8.44-.95-1.13-.06-.07 4.03-4.84 3.25 3.25c.3930079.3899779 1.0269921.3899779 1.42 0l3.24-3.25z" fill="#e8edfc"/><path id="Shape" d="m2.023 14.135c-.63168944.3536478-1.02295374 1.0210537-1.023 1.745v28.24c.00004626.7239463.39131056 1.3913522 1.023 1.745l3 .88c-.63168944-.3536478-1.02295374-1.0210537-1.023-1.745v-30c.00004626-.7239463.39131056-1.3913522 1.023-1.745z" fill="#fff"/><path id="Rectangle-path" d="m1.513 11.181h8v2h-8z" fill="#fff" transform="matrix(.873 -.489 .489 .873 -5.249 4.247)"/><g fill="#428dff"><path id="Shape" d="m5.533 13.181c-.55228474.0030376-1.00246242-.4422153-1.00549999-.9945-.00303756-.5522847.44221525-1.0024624.99449999-1.0055h.011c.55228475 0 1 .4477153 1 1s-.44771525 1-1 1z"/><path id="Shape" d="m1.534 46.737 23 12.881c.9120222.5052948 2.0199778.5052948 2.932 0l23-12.881c.9471852-.530514 1.533851-1.5313643 1.534-2.617v-28.24c.000213-1.0859936-.5865026-2.0873112-1.534-2.618l-23-12.88c-.9118243-.50605988-2.0201757-.50605988-2.932 0l-16.02 8.972c-.31576559.17243855-.51455942.5012102-.52057382.8609418-.00601439.3597315.18167787.6949649.49150254.8778627.30982468.1828979.69401759.1852638 1.00607128.0061955l16.02-8.971c.3032449-.16954183.6727551-.16954183.976 0l23 12.88c.3162673.1763469.5124921.5098909.513.872v28.24c-.0003054.3618991-.1961185.6953933-.512.872l-23 12.881c-.3032449.1695418-.6727551.1695418-.976 0l-23-12.881c-.31588151-.1766067-.51169462-.5101009-.512-.872v-28.24c-.00005664-.3622571.19580622-.6962186.512-.873.31171423-.1747029.50654719-.5024325.51110718-.8597364s-.18184576-.689899-.48900001-.8725c-.30715424-.182601-.68839294-.1874665-1.00010717-.0127636-.94749745.5306888-1.53421295 1.5320064-1.534 2.618v28.24c.00014899 1.0856357.58681482 2.086486 1.534 2.617z"/><path id="Shape" d="m5.534 44.393 19 10.639c.9114757.5074048 2.0205243.5074048 2.932 0l19-10.64c.9471852-.530514 1.533851-1.5313643 1.534-2.617v-23.55c.000213-1.0859936-.5865026-2.0873112-1.534-2.618l-19-10.64c-.9114757-.50740479-2.0205243-.50740479-2.932 0l-19 10.64c-.94749745.5306888-1.53421295 1.5320064-1.534 2.618v23.55c-.00021295 1.0859936.58650255 2.0873112 1.534 2.618zm9.458-25.122 2.672 3.172-2.472 2.48c-.0431392.0607226-.1130136.0967943-.1875.0967943s-.1443608-.0360717-.1875-.0967943l-2.474-2.475zm7.117-1.328 2.474 2.474c.7831725.7821177 2.0518275.7821177 2.835 0l2.467-2.475 2.854 3.428-6.617 8.01-6.809-8.08zm1.285-1.543 2.606-3.128 2.6 3.128-2.6 2.6zm22.606 23.6h-26.057l13.174-15.949 2.283 2.286c.8857528.8785778 2.3142472.8785778 3.2 0l2.362-2.37 5.038 6.033zm-8.808-15.077c-.0431392.0607226-.1130136.0967943-.1875.0967943s-.1443608-.0360717-.1875-.0967943l-2.417-2.423 2.666-3.226 2.623 3.147zm-26.136-.933 2.344 2.347c.8863375.8818893 2.3186625.8818893 3.205 0l2.35-2.357 5.87 6.967-7.476 9.053h-11.349v-9.948zm34.432 18.657-19 10.641c-.3032449.1695418-.6727551.1695418-.976 0l-19-10.641c-.24439819-.1384074-.41932369-.373214-.482-.647h39.94c-.0619819.2741061-.2370964.5091663-.482.647zm-38.976-25.295 19-10.641c.149241-.0829758.3172436-.1263535.488-.126.1709018-.00049773.339022.04325486.488.127l19 10.64c.315808.177041.5112593.5109528.511.873v8.653l-7.8-9.356c-.2903296-.3339297-.7123678-.5239203-1.1548426-.5198803-.4424748.0040399-.8609735.2017051-1.1451574.5408803l-1.864 2.257-6.869-8.253c-.2970762-.3319957-.7214943-.5217457-1.167-.5217457s-.8699238.18975-1.167.5217457l-6.827 8.194-1.856-2.2c-.2959709-.327731-.7169048-.5147693-1.1585-.5147693s-.8625291.1870383-1.1585.5147693l-7.83201332 9.389.00001332-8.7c-.00187448-.3640453.19423843-.7003483.512-.878z"/><path id="Shape" d="m32 44h-12c-.5522847 0-1 .4477153-1 1s.4477153 1 1 1h2.184c-.1184378.320257-.1806856.6585603-.184 1 0 1.6568542 1.3431458 3 3 3h3c.5522847 0 1-.4477153 1-1s-.4477153-1-1-1h-3c-.5522847 0-1-.4477153-1-1s.4477153-1 1-1h7c.5522847 0 1-.4477153 1-1s-.4477153-1-1-1z"/></g></g></g></svg>